Plot: Friends go on a snowy adventure and come face to face with a deadly creature. 

MediaInfo 0.7.61:
General
Complete name                            : D:Abominable.Snowman.2013.P.HDTVRip.1400Mb.avi
Format                                   : AVI
Format/Info                              : Audio Video Interleave
File size                                : 1.37 GiB
Duration                                 : 1h 24mn
Overall bit rate                         : 2 306 Kbps
Writing application                      : VirtualDubModRus 1.5.10.1 (build 2439/release)
Writing library                          : VirtualDubMod build 2439/release

Video
ID                                       : 0
Format                                   : MPEG-4 Visual
Format profile                           : Advanced Simple@L5
Format settings, BVOP                    : 2
Format settings, QPel                    : No
Format settings, GMC                     : No warppoints
Format settings, Matrix                  : Default (MPEG)
Codec ID                                 : XVID
Codec ID/Hint                            : XviD
Duration                                 : 1h 24mn
Bit rate                                 : 1 716 Kbps
Width                                    : 720 pixels
Height                                   : 400 pixels
Display aspect ratio                     : 16:9
Frame rate                               : 23.976 fps
Color space                              : YUV
Chroma subsampling                       : 4:2:0
Bit depth                                : 8 bits
Scan type                                : Progressive
Compression mode                         : Lossy
Bits/(Pixel*Frame)                       : 0.248
Stream size                              : 1.02 GiB (74%)
Writing library                          : XviD 63

Audio #1
ID                                       : 1
Format                                   : AC-3
Format/Info                              : Audio Coding 3
Mode extension                           : CM (complete main)
Format settings, Endianness              : Big
Codec ID                                 : 2000
Duration                                 : 1h 24mn
Bit rate mode                            : Constant
Bit rate                                 : 192 Kbps
Channel(s)                               : 2 channels
Channel positions                        : Front: L R
Sampling rate                            : 48.0 KHz
Bit depth                                : 16 bits
Compression mode                         : Lossy
Stream size                              : 117 MiB (8%)
Alignment                                : Split accross interleaves
Interleave, duration                     : 42 ms (1.00 video frame)
Interleave, preload duration             : 500 ms

Audio #2
ID                                       : 2
Format                                   : AC-3
Format/Info                              : Audio Coding 3
Mode extension                           : CM (complete main)
Format settings, Endianness              : Big
Codec ID                                 : 2000
Duration                                 : 1h 24mn
Bit rate mode                            : Constant
Bit rate                                 : 384 Kbps
Channel(s)                               : 6 channels
Channel positions                        : Front: L C R, Side: L R, LFE
Sampling rate                            : 48.0 KHz
Bit depth                                : 16 bits
Compression mode                         : Lossy
Stream size                              : 233 MiB (17%)
Alignment                                : Split accross interleaves
Interleave, duration                     : 42 ms (1.00 video frame)
Interleave, preload duration             : 500 ms


Screenshots: 
http://img713.imageshack.us/img713/9333/grab54u.png 
http://img577.imageshack.us/img577/5702/grab55q.png 
http://img843.imageshack.us/img843/5322/grab56c.png 
http://img19.imageshack.us/img19/2410/grab57.png 
http://img685.imageshack.us/img685/2734/grab58m.png 
http://img213.imageshack.us/img213/8103/grab59h.png 
http://img203.imageshack.us/img203/8048/grab60g.png 
http://img825.imageshack.us/img825/2076/grab61.png 
http://img831.imageshack.us/img831/1903/grab62.png 
http://img266.imageshack.us/img266/927/grab63j.png 
http://img12.imageshack.us/img12/2042/grab64u.png 
http://img197.imageshack.us/img197/6748/grab65.png